<mxfile host="app.diagrams.net" modified="2024-06-23T10:04:10.603Z" agent="Mozilla/5.0 (Windows NT 10.0; Win64; x64) AppleWebKit/537.36 (KHTML, like Gecko) Chrome/126.0.0.0 Safari/537.36" etag="HrZ_A_p4avhWPRqauDcX" version="24.6.2" type="device">
  <diagram id="C5RBs43oDa-KdzZeNtuy" name="Page-1">
    <mxGraphModel dx="2062" dy="624" grid="1" gridSize="10" guides="1" tooltips="1" connect="1" arrows="1" fold="1" page="1" pageScale="1" pageWidth="827" pageHeight="1169" math="0" shadow="0">
      <root>
        <mxCell id="WIyWlLk6GJQsqaUBKTNV-0" />
        <mxCell id="WIyWlLk6GJQsqaUBKTNV-1" parent="WIyWlLk6GJQsqaUBKTNV-0" />
        <mxCell id="yjOwe09sKXVpLF6mm_4c-2" value="Transazione" style="swimlane;fontStyle=1;align=center;verticalAlign=top;childLayout=stackLayout;horizontal=1;startSize=26;horizontalStack=0;resizeParent=1;resizeParentMax=0;resizeLast=0;collapsible=1;marginBottom=0;whiteSpace=wrap;html=1;" parent="WIyWlLk6GJQsqaUBKTNV-1" vertex="1">
          <mxGeometry x="-785" y="810" width="240" height="220" as="geometry" />
        </mxCell>
        <mxCell id="yjOwe09sKXVpLF6mm_4c-3" value="&lt;div&gt;- valore: double&lt;/div&gt;&lt;div&gt;- motivo: String&lt;/div&gt;&lt;div&gt;- data: Date&lt;/div&gt;&lt;div&gt;- tipo: String&lt;/div&gt;&lt;div&gt;&lt;br&gt;&lt;/div&gt;" style="text;strokeColor=none;fillColor=none;align=left;verticalAlign=top;spacingLeft=4;spacingRight=4;overflow=hidden;rotatable=0;points=[[0,0.5],[1,0.5]];portConstraint=eastwest;whiteSpace=wrap;html=1;" parent="yjOwe09sKXVpLF6mm_4c-2" vertex="1">
          <mxGeometry y="26" width="240" height="64" as="geometry" />
        </mxCell>
        <mxCell id="yjOwe09sKXVpLF6mm_4c-4" value="" style="line;strokeWidth=1;fillColor=none;align=left;verticalAlign=middle;spacingTop=-1;spacingLeft=3;spacingRight=3;rotatable=0;labelPosition=right;points=[];portConstraint=eastwest;strokeColor=inherit;" parent="yjOwe09sKXVpLF6mm_4c-2" vertex="1">
          <mxGeometry y="90" width="240" height="8" as="geometry" />
        </mxCell>
        <mxCell id="yjOwe09sKXVpLF6mm_4c-5" value="&lt;div&gt;+ Transazione(double valore, String motivo, Date data, String tipo)&lt;/div&gt;&lt;div&gt;+ getValore(): double&lt;/div&gt;&lt;div&gt;+ getMotivo(): String&lt;/div&gt;&lt;div&gt;+ getData(): Date&lt;/div&gt;&lt;div&gt;+ getTipo(): String&lt;/div&gt;&lt;div&gt;&lt;br&gt;&lt;/div&gt;" style="text;strokeColor=none;fillColor=none;align=left;verticalAlign=top;spacingLeft=4;spacingRight=4;overflow=hidden;rotatable=0;points=[[0,0.5],[1,0.5]];portConstraint=eastwest;whiteSpace=wrap;html=1;" parent="yjOwe09sKXVpLF6mm_4c-2" vertex="1">
          <mxGeometry y="98" width="240" height="122" as="geometry" />
        </mxCell>
        <mxCell id="yjOwe09sKXVpLF6mm_4c-6" value="Portafoglio" style="swimlane;fontStyle=1;align=center;verticalAlign=top;childLayout=stackLayout;horizontal=1;startSize=26;horizontalStack=0;resizeParent=1;resizeParentMax=0;resizeLast=0;collapsible=1;marginBottom=0;whiteSpace=wrap;html=1;" parent="WIyWlLk6GJQsqaUBKTNV-1" vertex="1">
          <mxGeometry x="-800" y="450" width="270" height="210" as="geometry" />
        </mxCell>
        <mxCell id="yjOwe09sKXVpLF6mm_4c-7" value="&lt;div&gt;- saldo: double&lt;/div&gt;&lt;div&gt;- transazioni: ArrayList&amp;lt;Transazione&amp;gt;&lt;/div&gt;&lt;div&gt;&lt;br&gt;&lt;/div&gt;" style="text;strokeColor=none;fillColor=none;align=left;verticalAlign=top;spacingLeft=4;spacingRight=4;overflow=hidden;rotatable=0;points=[[0,0.5],[1,0.5]];portConstraint=eastwest;whiteSpace=wrap;html=1;" parent="yjOwe09sKXVpLF6mm_4c-6" vertex="1">
          <mxGeometry y="26" width="270" height="54" as="geometry" />
        </mxCell>
        <mxCell id="yjOwe09sKXVpLF6mm_4c-8" value="" style="line;strokeWidth=1;fillColor=none;align=left;verticalAlign=middle;spacingTop=-1;spacingLeft=3;spacingRight=3;rotatable=0;labelPosition=right;points=[];portConstraint=eastwest;strokeColor=inherit;" parent="yjOwe09sKXVpLF6mm_4c-6" vertex="1">
          <mxGeometry y="80" width="270" height="8" as="geometry" />
        </mxCell>
        <mxCell id="yjOwe09sKXVpLF6mm_4c-9" value="&lt;div&gt;+ Portafoglio(double saldo, ArrayList&amp;lt;Transazione&amp;gt; transazioni)&lt;/div&gt;&lt;div&gt;+ getSaldo(): double&lt;/div&gt;&lt;div&gt;+ spesa(double valore, String motivo)&lt;/div&gt;&lt;div&gt;+ accredito(double valore, String motivo)&lt;/div&gt;&lt;div&gt;+ getTransazioni(): ArrayList&amp;lt;Transazione&amp;gt;&lt;/div&gt;&lt;div&gt;&lt;br&gt;&lt;/div&gt;" style="text;strokeColor=none;fillColor=none;align=left;verticalAlign=top;spacingLeft=4;spacingRight=4;overflow=hidden;rotatable=0;points=[[0,0.5],[1,0.5]];portConstraint=eastwest;whiteSpace=wrap;html=1;" parent="yjOwe09sKXVpLF6mm_4c-6" vertex="1">
          <mxGeometry y="88" width="270" height="122" as="geometry" />
        </mxCell>
        <mxCell id="yjOwe09sKXVpLF6mm_4c-10" value="Login" style="swimlane;fontStyle=1;align=center;verticalAlign=top;childLayout=stackLayout;horizontal=1;startSize=26;horizontalStack=0;resizeParent=1;resizeParentMax=0;resizeLast=0;collapsible=1;marginBottom=0;whiteSpace=wrap;html=1;" parent="WIyWlLk6GJQsqaUBKTNV-1" vertex="1">
          <mxGeometry x="140" y="690" width="210" height="100" as="geometry" />
        </mxCell>
        <mxCell id="yjOwe09sKXVpLF6mm_4c-11" value="&lt;div&gt;- view: LogInView&lt;/div&gt;&lt;div&gt;&lt;br&gt;&lt;/div&gt;" style="text;strokeColor=none;fillColor=none;align=left;verticalAlign=top;spacingLeft=4;spacingRight=4;overflow=hidden;rotatable=0;points=[[0,0.5],[1,0.5]];portConstraint=eastwest;whiteSpace=wrap;html=1;" parent="yjOwe09sKXVpLF6mm_4c-10" vertex="1">
          <mxGeometry y="26" width="210" height="26" as="geometry" />
        </mxCell>
        <mxCell id="yjOwe09sKXVpLF6mm_4c-12" value="" style="line;strokeWidth=1;fillColor=none;align=left;verticalAlign=middle;spacingTop=-1;spacingLeft=3;spacingRight=3;rotatable=0;labelPosition=right;points=[];portConstraint=eastwest;strokeColor=inherit;" parent="yjOwe09sKXVpLF6mm_4c-10" vertex="1">
          <mxGeometry y="52" width="210" height="8" as="geometry" />
        </mxCell>
        <mxCell id="yjOwe09sKXVpLF6mm_4c-13" value="&lt;div&gt;+ LoginController(LogInView view)&lt;/div&gt;&lt;div&gt;- addListeners(): void&lt;/div&gt;&lt;div&gt;&lt;br&gt;&lt;/div&gt;" style="text;strokeColor=none;fillColor=none;align=left;verticalAlign=top;spacingLeft=4;spacingRight=4;overflow=hidden;rotatable=0;points=[[0,0.5],[1,0.5]];portConstraint=eastwest;whiteSpace=wrap;html=1;" parent="yjOwe09sKXVpLF6mm_4c-10" vertex="1">
          <mxGeometry y="60" width="210" height="40" as="geometry" />
        </mxCell>
        <mxCell id="-RuHaSjKpSI5m4uppv7U-10" value="" style="endArrow=block;endFill=1;html=1;edgeStyle=orthogonalEdgeStyle;align=left;verticalAlign=top;rounded=0;" edge="1" parent="yjOwe09sKXVpLF6mm_4c-10">
          <mxGeometry x="-1" relative="1" as="geometry">
            <mxPoint x="80" y="100" as="sourcePoint" />
            <mxPoint x="100" y="200" as="targetPoint" />
          </mxGeometry>
        </mxCell>
        <mxCell id="yjOwe09sKXVpLF6mm_4c-14" value="SetLoginController" style="swimlane;fontStyle=1;align=center;verticalAlign=top;childLayout=stackLayout;horizontal=1;startSize=26;horizontalStack=0;resizeParent=1;resizeParentMax=0;resizeLast=0;collapsible=1;marginBottom=0;whiteSpace=wrap;html=1;" parent="WIyWlLk6GJQsqaUBKTNV-1" vertex="1">
          <mxGeometry x="140" y="900" width="210" height="120" as="geometry" />
        </mxCell>
        <mxCell id="yjOwe09sKXVpLF6mm_4c-15" value="&lt;div&gt;- view: PswSettingView&lt;/div&gt;&lt;div&gt;&lt;br&gt;&lt;/div&gt;" style="text;strokeColor=none;fillColor=none;align=left;verticalAlign=top;spacingLeft=4;spacingRight=4;overflow=hidden;rotatable=0;points=[[0,0.5],[1,0.5]];portConstraint=eastwest;whiteSpace=wrap;html=1;" parent="yjOwe09sKXVpLF6mm_4c-14" vertex="1">
          <mxGeometry y="26" width="210" height="26" as="geometry" />
        </mxCell>
        <mxCell id="yjOwe09sKXVpLF6mm_4c-16" value="" style="line;strokeWidth=1;fillColor=none;align=left;verticalAlign=middle;spacingTop=-1;spacingLeft=3;spacingRight=3;rotatable=0;labelPosition=right;points=[];portConstraint=eastwest;strokeColor=inherit;" parent="yjOwe09sKXVpLF6mm_4c-14" vertex="1">
          <mxGeometry y="52" width="210" height="8" as="geometry" />
        </mxCell>
        <mxCell id="yjOwe09sKXVpLF6mm_4c-17" value="&lt;div&gt;+ SetLoginController(PswSettingView view)&lt;/div&gt;&lt;div&gt;- addListeners(): void&lt;/div&gt;&lt;div&gt;&lt;br&gt;&lt;/div&gt;" style="text;strokeColor=none;fillColor=none;align=left;verticalAlign=top;spacingLeft=4;spacingRight=4;overflow=hidden;rotatable=0;points=[[0,0.5],[1,0.5]];portConstraint=eastwest;whiteSpace=wrap;html=1;" parent="yjOwe09sKXVpLF6mm_4c-14" vertex="1">
          <mxGeometry y="60" width="210" height="60" as="geometry" />
        </mxCell>
        <mxCell id="yjOwe09sKXVpLF6mm_4c-18" value="PortafoglioDAO" style="swimlane;fontStyle=1;align=center;verticalAlign=top;childLayout=stackLayout;horizontal=1;startSize=26;horizontalStack=0;resizeParent=1;resizeParentMax=0;resizeLast=0;collapsible=1;marginBottom=0;whiteSpace=wrap;html=1;" parent="WIyWlLk6GJQsqaUBKTNV-1" vertex="1">
          <mxGeometry x="-350" y="110" width="350" height="190" as="geometry" />
        </mxCell>
        <mxCell id="yjOwe09sKXVpLF6mm_4c-20" value="" style="line;strokeWidth=1;fillColor=none;align=left;verticalAlign=middle;spacingTop=-1;spacingLeft=3;spacingRight=3;rotatable=0;labelPosition=right;points=[];portConstraint=eastwest;strokeColor=inherit;" parent="yjOwe09sKXVpLF6mm_4c-18" vertex="1">
          <mxGeometry y="26" width="350" height="8" as="geometry" />
        </mxCell>
        <mxCell id="yjOwe09sKXVpLF6mm_4c-21" value="&lt;div&gt;+ getPortafoglioByUsername(String username): Portafoglio&lt;/div&gt;&lt;div&gt;+ createPortafoglio(String username): void&lt;/div&gt;&lt;div&gt;+ updatePortafoglio(String username, Portafoglio portafoglio): void&lt;/div&gt;&lt;div&gt;+ deletePortafoglio(String username): void&lt;/div&gt;&lt;div&gt;+ aggiungiTransazione(String username, double valore, String motivo, String tipo): void&lt;/div&gt;&lt;div&gt;+ getTransazioni(String username): List&amp;lt;Transazione&amp;gt;&lt;/div&gt;&lt;div&gt;+ getPortafoglioByUsername(String username, String password): Portafoglio&lt;/div&gt;&lt;div&gt;&lt;br&gt;&lt;/div&gt;" style="text;strokeColor=none;fillColor=none;align=left;verticalAlign=top;spacingLeft=4;spacingRight=4;overflow=hidden;rotatable=0;points=[[0,0.5],[1,0.5]];portConstraint=eastwest;whiteSpace=wrap;html=1;" parent="yjOwe09sKXVpLF6mm_4c-18" vertex="1">
          <mxGeometry y="34" width="350" height="156" as="geometry" />
        </mxCell>
        <mxCell id="yjOwe09sKXVpLF6mm_4c-22" value="PortafoglioDAOImpl" style="swimlane;fontStyle=1;align=center;verticalAlign=top;childLayout=stackLayout;horizontal=1;startSize=26;horizontalStack=0;resizeParent=1;resizeParentMax=0;resizeLast=0;collapsible=1;marginBottom=0;whiteSpace=wrap;html=1;" parent="WIyWlLk6GJQsqaUBKTNV-1" vertex="1">
          <mxGeometry x="-305" y="380" width="260" height="270" as="geometry" />
        </mxCell>
        <mxCell id="yjOwe09sKXVpLF6mm_4c-23" value="&lt;div&gt;- connection: Connection&lt;/div&gt;&lt;div&gt;&lt;br&gt;&lt;/div&gt;" style="text;strokeColor=none;fillColor=none;align=left;verticalAlign=top;spacingLeft=4;spacingRight=4;overflow=hidden;rotatable=0;points=[[0,0.5],[1,0.5]];portConstraint=eastwest;whiteSpace=wrap;html=1;" parent="yjOwe09sKXVpLF6mm_4c-22" vertex="1">
          <mxGeometry y="26" width="260" height="26" as="geometry" />
        </mxCell>
        <mxCell id="yjOwe09sKXVpLF6mm_4c-24" value="" style="line;strokeWidth=1;fillColor=none;align=left;verticalAlign=middle;spacingTop=-1;spacingLeft=3;spacingRight=3;rotatable=0;labelPosition=right;points=[];portConstraint=eastwest;strokeColor=inherit;" parent="yjOwe09sKXVpLF6mm_4c-22" vertex="1">
          <mxGeometry y="52" width="260" height="8" as="geometry" />
        </mxCell>
        <mxCell id="yjOwe09sKXVpLF6mm_4c-25" value="&lt;div&gt;+ PortafoglioDAOImpl(Connection connection)&lt;/div&gt;&lt;div&gt;+ getPortafoglioByUsername(String username, String password): Portafoglio&lt;/div&gt;&lt;div&gt;+ createPortafoglio(String username): void&lt;/div&gt;&lt;div&gt;+ updatePortafoglio(String username, Portafoglio portafoglio): void&lt;/div&gt;&lt;div&gt;+ deletePortafoglio(String username): void&lt;/div&gt;&lt;div&gt;+ aggiungiTransazione(String username, double valore, String motivo, String tipo): void&lt;/div&gt;&lt;div&gt;+ getTransazioni(String username): List&amp;lt;Transazione&amp;gt;&lt;/div&gt;&lt;div&gt;- getPortafoglioByUsername(String username): Portafoglio&lt;/div&gt;&lt;div&gt;&lt;br&gt;&lt;/div&gt;" style="text;strokeColor=none;fillColor=none;align=left;verticalAlign=top;spacingLeft=4;spacingRight=4;overflow=hidden;rotatable=0;points=[[0,0.5],[1,0.5]];portConstraint=eastwest;whiteSpace=wrap;html=1;" parent="yjOwe09sKXVpLF6mm_4c-22" vertex="1">
          <mxGeometry y="60" width="260" height="210" as="geometry" />
        </mxCell>
        <mxCell id="yjOwe09sKXVpLF6mm_4c-26" value="DBController" style="swimlane;fontStyle=1;align=center;verticalAlign=top;childLayout=stackLayout;horizontal=1;startSize=26;horizontalStack=0;resizeParent=1;resizeParentMax=0;resizeLast=0;collapsible=1;marginBottom=0;whiteSpace=wrap;html=1;" parent="WIyWlLk6GJQsqaUBKTNV-1" vertex="1">
          <mxGeometry x="120" y="400" width="280" height="150" as="geometry" />
        </mxCell>
        <mxCell id="yjOwe09sKXVpLF6mm_4c-27" value="&lt;div&gt;- url: String&lt;/div&gt;&lt;div&gt;- username: String&lt;/div&gt;&lt;div&gt;- password: String&lt;/div&gt;&lt;div&gt;- connection: Connection&lt;/div&gt;&lt;div&gt;&lt;br&gt;&lt;/div&gt;" style="text;strokeColor=none;fillColor=none;align=left;verticalAlign=top;spacingLeft=4;spacingRight=4;overflow=hidden;rotatable=0;points=[[0,0.5],[1,0.5]];portConstraint=eastwest;whiteSpace=wrap;html=1;" parent="yjOwe09sKXVpLF6mm_4c-26" vertex="1">
          <mxGeometry y="26" width="280" height="64" as="geometry" />
        </mxCell>
        <mxCell id="yjOwe09sKXVpLF6mm_4c-28" value="" style="line;strokeWidth=1;fillColor=none;align=left;verticalAlign=middle;spacingTop=-1;spacingLeft=3;spacingRight=3;rotatable=0;labelPosition=right;points=[];portConstraint=eastwest;strokeColor=inherit;" parent="yjOwe09sKXVpLF6mm_4c-26" vertex="1">
          <mxGeometry y="90" width="280" height="8" as="geometry" />
        </mxCell>
        <mxCell id="yjOwe09sKXVpLF6mm_4c-29" value="&lt;div&gt;+ DbController()&lt;/div&gt;&lt;div&gt;+ getPortafoglioDAO(): PortafoglioDAOImpl&lt;/div&gt;&lt;div&gt;+ closeConnection(): void&lt;/div&gt;&lt;div&gt;&lt;br&gt;&lt;/div&gt;" style="text;strokeColor=none;fillColor=none;align=left;verticalAlign=top;spacingLeft=4;spacingRight=4;overflow=hidden;rotatable=0;points=[[0,0.5],[1,0.5]];portConstraint=eastwest;whiteSpace=wrap;html=1;" parent="yjOwe09sKXVpLF6mm_4c-26" vertex="1">
          <mxGeometry y="98" width="280" height="52" as="geometry" />
        </mxCell>
        <mxCell id="yjOwe09sKXVpLF6mm_4c-30" value="GestionePortafoglio" style="swimlane;fontStyle=1;align=center;verticalAlign=top;childLayout=stackLayout;horizontal=1;startSize=26;horizontalStack=0;resizeParent=1;resizeParentMax=0;resizeLast=0;collapsible=1;marginBottom=0;whiteSpace=wrap;html=1;" parent="WIyWlLk6GJQsqaUBKTNV-1" vertex="1">
          <mxGeometry x="-780" y="100" width="270" height="210" as="geometry" />
        </mxCell>
        <mxCell id="yjOwe09sKXVpLF6mm_4c-31" value="&lt;div&gt;- username: String&lt;/div&gt;&lt;div&gt;- portafoglio: Portafoglio&lt;/div&gt;&lt;div&gt;- portafoglioDAO: PortafoglioDAO&lt;/div&gt;&lt;div&gt;&lt;br&gt;&lt;/div&gt;" style="text;strokeColor=none;fillColor=none;align=left;verticalAlign=top;spacingLeft=4;spacingRight=4;overflow=hidden;rotatable=0;points=[[0,0.5],[1,0.5]];portConstraint=eastwest;whiteSpace=wrap;html=1;" parent="yjOwe09sKXVpLF6mm_4c-30" vertex="1">
          <mxGeometry y="26" width="270" height="54" as="geometry" />
        </mxCell>
        <mxCell id="yjOwe09sKXVpLF6mm_4c-32" value="" style="line;strokeWidth=1;fillColor=none;align=left;verticalAlign=middle;spacingTop=-1;spacingLeft=3;spacingRight=3;rotatable=0;labelPosition=right;points=[];portConstraint=eastwest;strokeColor=inherit;" parent="yjOwe09sKXVpLF6mm_4c-30" vertex="1">
          <mxGeometry y="80" width="270" height="8" as="geometry" />
        </mxCell>
        <mxCell id="yjOwe09sKXVpLF6mm_4c-33" value="&lt;div&gt;+ GestionePortafoglio(username: String, portafoglioDAO: PortafoglioDAO)&lt;/div&gt;&lt;div&gt;+ aggiungiAccredito(valore: double, motivo: String): void&lt;/div&gt;&lt;div&gt;+ aggiungiSpesa(valore: double, motivo: String): void&lt;/div&gt;&lt;div&gt;+ getPortafoglio(): Portafoglio&lt;/div&gt;&lt;div&gt;+ stampaTransazioni(): void&lt;/div&gt;&lt;div&gt;&lt;br&gt;&lt;/div&gt;" style="text;strokeColor=none;fillColor=none;align=left;verticalAlign=top;spacingLeft=4;spacingRight=4;overflow=hidden;rotatable=0;points=[[0,0.5],[1,0.5]];portConstraint=eastwest;whiteSpace=wrap;html=1;" parent="yjOwe09sKXVpLF6mm_4c-30" vertex="1">
          <mxGeometry y="88" width="270" height="122" as="geometry" />
        </mxCell>
        <mxCell id="-RuHaSjKpSI5m4uppv7U-1" value="" style="endArrow=diamondThin;endFill=0;endSize=24;html=1;rounded=0;entryX=0.49;entryY=1.029;entryDx=0;entryDy=0;entryPerimeter=0;" edge="1" parent="WIyWlLk6GJQsqaUBKTNV-1">
          <mxGeometry width="160" relative="1" as="geometry">
            <mxPoint x="-657.89" y="806.46" as="sourcePoint" />
            <mxPoint x="-660.0000000000002" y="659.9979999999998" as="targetPoint" />
          </mxGeometry>
        </mxCell>
        <mxCell id="-RuHaSjKpSI5m4uppv7U-2" value="" style="endArrow=open;html=1;rounded=0;align=center;verticalAlign=bottom;dashed=1;endFill=0;labelBackgroundColor=none;entryX=0.004;entryY=0.875;entryDx=0;entryDy=0;entryPerimeter=0;exitX=1.005;exitY=0.743;exitDx=0;exitDy=0;exitPerimeter=0;" edge="1" parent="WIyWlLk6GJQsqaUBKTNV-1" source="yjOwe09sKXVpLF6mm_4c-33" target="yjOwe09sKXVpLF6mm_4c-21">
          <mxGeometry relative="1" as="geometry">
            <mxPoint x="-510" y="310" as="sourcePoint" />
            <mxPoint x="-350" y="310" as="targetPoint" />
          </mxGeometry>
        </mxCell>
        <mxCell id="-RuHaSjKpSI5m4uppv7U-3" value="" style="resizable=0;html=1;align=center;verticalAlign=top;labelBackgroundColor=none;" connectable="0" vertex="1" parent="-RuHaSjKpSI5m4uppv7U-2">
          <mxGeometry relative="1" as="geometry" />
        </mxCell>
        <mxCell id="-RuHaSjKpSI5m4uppv7U-5" value="" style="endArrow=block;dashed=1;endFill=0;endSize=12;html=1;rounded=0;entryX=0.566;entryY=0.995;entryDx=0;entryDy=0;entryPerimeter=0;" edge="1" parent="WIyWlLk6GJQsqaUBKTNV-1">
          <mxGeometry width="160" relative="1" as="geometry">
            <mxPoint x="-174.05" y="380" as="sourcePoint" />
            <mxPoint x="-175.9500000000001" y="299.22" as="targetPoint" />
          </mxGeometry>
        </mxCell>
        <mxCell id="-RuHaSjKpSI5m4uppv7U-6" value="" style="html=1;verticalAlign=bottom;endArrow=block;curved=0;rounded=0;exitX=0.503;exitY=1.02;exitDx=0;exitDy=0;exitPerimeter=0;entryX=0.577;entryY=0.013;entryDx=0;entryDy=0;entryPerimeter=0;" edge="1" parent="WIyWlLk6GJQsqaUBKTNV-1" source="yjOwe09sKXVpLF6mm_4c-33" target="yjOwe09sKXVpLF6mm_4c-6">
          <mxGeometry width="80" relative="1" as="geometry">
            <mxPoint x="-790" y="380" as="sourcePoint" />
            <mxPoint x="-710" y="380" as="targetPoint" />
            <Array as="points" />
          </mxGeometry>
        </mxCell>
        <mxCell id="-RuHaSjKpSI5m4uppv7U-7" value="" style="endArrow=open;html=1;rounded=0;align=center;verticalAlign=bottom;dashed=1;endFill=0;labelBackgroundColor=none;" edge="1" parent="WIyWlLk6GJQsqaUBKTNV-1">
          <mxGeometry relative="1" as="geometry">
            <mxPoint x="-40" y="470" as="sourcePoint" />
            <mxPoint x="120" y="470" as="targetPoint" />
            <mxPoint as="offset" />
          </mxGeometry>
        </mxCell>
        <mxCell id="-RuHaSjKpSI5m4uppv7U-8" value="" style="resizable=0;html=1;align=center;verticalAlign=top;labelBackgroundColor=none;" connectable="0" vertex="1" parent="-RuHaSjKpSI5m4uppv7U-7">
          <mxGeometry relative="1" as="geometry" />
        </mxCell>
        <mxCell id="-RuHaSjKpSI5m4uppv7U-15" value="" style="endArrow=open;html=1;rounded=0;align=center;verticalAlign=bottom;dashed=1;endFill=0;labelBackgroundColor=none;exitX=0.652;exitY=0.008;exitDx=0;exitDy=0;exitPerimeter=0;entryX=0.567;entryY=1.102;entryDx=0;entryDy=0;entryPerimeter=0;" edge="1" parent="WIyWlLk6GJQsqaUBKTNV-1" source="yjOwe09sKXVpLF6mm_4c-10" target="yjOwe09sKXVpLF6mm_4c-29">
          <mxGeometry relative="1" as="geometry">
            <mxPoint x="190" y="610" as="sourcePoint" />
            <mxPoint x="350" y="610" as="targetPoint" />
          </mxGeometry>
        </mxCell>
        <mxCell id="-RuHaSjKpSI5m4uppv7U-16" value="" style="resizable=0;html=1;align=center;verticalAlign=top;labelBackgroundColor=none;" connectable="0" vertex="1" parent="-RuHaSjKpSI5m4uppv7U-15">
          <mxGeometry relative="1" as="geometry" />
        </mxCell>
      </root>
    </mxGraphModel>
  </diagram>
</mxfile>
